<svg width="1600" height="800" viewBox="0 0 1600 800" fill="none" xmlns="http://www.w3.org/2000/svg">
  <g opacity="0.1" stroke="#DDF8F1" stroke-width="2">
    <path d="M0 120H1600"/>
    <path d="M0 240H1600"/>
    <path d="M0 360H1600"/>
    <path d="M0 480H1600"/>
    <path d="M0 600H1600"/>
    <path d="M0 720H1600"/>
    <path d="M0 0V800"/>
    <path d="M200 0V800"/>
    <path d="M400 0V800"/>
    <path d="M600 0V800"/>
    <path d="M800 0V800"/>
    <path d="M1000 0V800"/>
    <path d="M1200 0V800"/>
    <path d="M1400 0V800"/>
    <path d="M1600 0V800"/>
  </g>
  <g opacity="0.88">
    <path d="M130 220C190 160 310 128 392 145C450 157 512 185 532 232C551 276 531 318 478 339C426 360 392 334 334 346C269 359 207 399 161 367C117 337 90 264 130 220Z" fill="#88B8A8"/>
    <path d="M394 368C443 351 480 378 497 430C511 474 505 527 474 569C445 609 400 650 357 636C309 619 298 557 309 513C322 460 335 403 394 368Z" fill="#88B8A8"/>
    <path d="M638 187C672 156 732 145 780 160C822 173 867 197 879 236C891 273 865 307 827 324C787 341 755 317 714 322C672 326 623 349 592 322C554 289 598 222 638 187Z" fill="#88B8A8"/>
    <path d="M758 327C806 306 871 317 922 336C995 364 1077 399 1093 460C1107 516 1057 564 993 569C948 574 908 553 866 564C803 581 742 650 684 624C631 600 635 517 661 459C679 418 709 349 758 327Z" fill="#88B8A8"/>
    <path d="M1012 197C1061 152 1140 131 1204 145C1269 158 1353 184 1385 237C1417 288 1388 336 1336 357C1268 383 1192 345 1120 359C1074 369 1027 402 986 373C935 338 963 243 1012 197Z" fill="#88B8A8"/>
    <path d="M1217 419C1270 389 1336 391 1385 418C1438 446 1475 500 1461 549C1446 603 1387 634 1334 620C1281 607 1253 557 1214 522C1175 487 1165 451 1217 419Z" fill="#88B8A8"/>
  </g>
  <g opacity="0.22" stroke="#B9E6D7" stroke-width="10">
    <path d="M128 220C188 160 308 128 390 145C448 157 510 185 530 232C549 276 529 318 476 339C424 360 390 334 332 346C267 359 205 399 159 367C115 337 88 264 128 220Z"/>
    <path d="M392 368C441 351 478 378 495 430C509 474 503 527 472 569C443 609 398 650 355 636C307 619 296 557 307 513C320 460 333 403 392 368Z"/>
    <path d="M636 187C670 156 730 145 778 160C820 173 865 197 877 236C889 273 863 307 825 324C785 341 753 317 712 322C670 326 621 349 590 322C552 289 596 222 636 187Z"/>
    <path d="M756 327C804 306 869 317 920 336C993 364 1075 399 1091 460C1105 516 1055 564 991 569C946 574 906 553 864 564C801 581 740 650 682 624C629 600 633 517 659 459C677 418 707 349 756 327Z"/>
    <path d="M1010 197C1059 152 1138 131 1202 145C1267 158 1351 184 1383 237C1415 288 1386 336 1334 357C1266 383 1190 345 1118 359C1072 369 1025 402 984 373C933 338 961 243 1010 197Z"/>
    <path d="M1215 419C1268 389 1334 391 1383 418C1436 446 1473 500 1459 549C1444 603 1385 634 1332 620C1279 607 1251 557 1212 522C1173 487 1163 451 1215 419Z"/>
  </g>
  <g opacity="0.22" fill="#C8ECDD">
    <circle cx="118" cy="318" r="10"/>
    <circle cx="562" cy="352" r="12"/>
    <circle cx="1098" cy="392" r="10"/>
    <circle cx="1188" cy="572" r="12"/>
    <circle cx="1466" cy="514" r="8"/>
  </g>
</svg>
